<svg xmlns="http://www.w3.org/2000/svg" width="70" height="50" viewBox="0 0 70 50">
  <g fill="none" fill-rule="evenodd">
    <path fill="#FFF" d="M28.6521189,0.539623013 C30.598189,0.179874338 32.7141494,-1.77635684e-15 35,-1.77635684e-15 C37.2280443,-1.77635684e-15 39.4563998,0.170891773 41.6850666,0.512675318 C42.2309957,0.596359484 42.6056842,1.10678755 42.5219626,1.65271085 C42.5210729,1.65851225 42.5201321,1.66430571 42.5191404,1.67009055 L41.7137072,6.3684258 C41.2944867,8.81386499 41.0837402,11.2904941 41.0837402,13.7716064 L41.0837402,16.9072335 C41.083738,17.2535938 41.2629666,17.5752908 41.5574865,17.7575638 C42.8392428,18.5508192 43.480121,19.8236218 43.480121,21.5759717 C43.480121,23.2681571 43.0334824,24.5533886 42.1402054,25.4316663 C41.8724555,25.6948839 41.7747334,26.0859067 41.8871492,26.444147 L42.3943082,28.0603326 C42.5596888,28.5872868 42.2665538,29.1485237 41.7395932,29.3138839 C41.7345222,29.3154752 41.7294386,29.317026 41.7243429,29.3185362 C39.9789085,29.8358337 38.0653418,30.0944824 35.9836426,30.0944824 C33.7357659,30.0944824 31.6768633,29.7928907 29.8069349,29.1897074 C29.4655435,29.0795849 29.2092883,28.7950427 29.1353828,28.4440256 L28.6624551,26.1978375 C28.6119312,25.9576466 28.4747991,25.7444503 28.2772146,25.5988319 C26.7590715,24.4799713 26,23.1390179 26,21.5759717 C26,20.1336189 26.3194031,19.0875374 26.9582094,18.4377274 C27.1581301,18.234363 27.2617148,17.9553177 27.2429153,17.670762 L26.9457413,13.1726284 C26.7616828,10.3866509 26.8840783,7.58888609 27.3107278,4.82962567 L27.8456449,1.37016824 C27.9105928,0.950036188 28.2340791,0.616901438 28.6521189,0.539623013 Z"/>
    <path stroke="#FFF" stroke-linecap="square" stroke-width="2" d="M40.5,17.5 C46.2333984,19.1414388 49.2333984,23.4527181 49.5,30.4338379 C49.7666016,37.4149577 42.0999349,43.4370117 26.5,48.5"/>
    <path stroke="#FFF" stroke-linecap="square" stroke-width="2" d="M48.3972168,24.340332 C49.5743001,26.5292969 50.5213623,28.5198161 51.2384033,30.3118896 C51.9554443,32.1039632 52.2975667,34.1666667 52.2647705,36.5"/>
    <path stroke="#FFF" stroke-linecap="square" stroke-width="2" d="M40.5,17.5 C46.4996977,17.5098837 50.7479073,18.4592652 53.2446289,20.3481445 C56.9897113,23.1814636 58.4372964,26.1953487 58.9245605,31 C59.2494033,34.2031009 58.3655329,37.6418216 56.2729492,41.3161621"/>
    <path fill="#FFF" fill-rule="nonzero" d="M16.9147607,14.3969727 C20.0319587,14.3969727 23.29001,15.6762276 26.6869822,18.1969454 L27.4900369,18.7928508 L26.2982261,20.39896 L25.4951715,19.8030546 C22.4181232,17.5197359 19.5586303,16.3969727 16.9147607,16.3969727 C12.2743197,16.3969727 8.86373527,19.5971144 8.86373527,25.5 C8.86373527,26.3242854 8.95905369,27.1860898 9.15004795,28.0850683 L9.23343151,27.9953578 L9.97224729,28.6692653 C13.0364096,31.4642269 15.8280773,33.2944916 18.3299778,34.1690484 C20.8669808,35.0558755 23.588797,35.5 26.5,35.5 L26.5,35.5 L27.5,35.5 L27.5,37.5 L26.5,37.5 C23.3682342,37.5 20.4233838,37.0194825 17.6700222,36.0570258 C15.3694511,35.2528451 12.9184673,33.769136 10.3073709,31.6109465 C11.7186635,34.8673299 14.1688935,38.521423 17.6703471,42.5602831 L18.3253961,43.3158696 L16.8142231,44.6259674 L16.1591742,43.870381 C9.98236735,36.7455518 6.86373527,30.6415359 6.86373527,25.5 C6.86373527,18.4630682 11.1972189,14.3969727 16.9147607,14.3969727 Z" opacity=".4"/>
    <polygon points="0 0 70 0 70 50 0 50"/>
  </g>
</svg>
