<svg xmlns="http://www.w3.org/2000/svg" width="30" height="22" viewBox="0 0 30 22">
  <path fill="#FFF" d="M7 2C4.2386 2 2 4.2386 2 7v8c0 2.7614 2.2386 5 5 5h16c2.7614 0 5-2.2386 5-5V7c0-2.7614-2.2386-5-5-5H7zm0-2h16c3.866 0 7 3.134 7 7v8c0 3.866-3.134 7-7 7H7c-3.866 0-7-3.134-7-7V7c0-3.866 3.134-7 7-7zm1.6785 15v-3.256h-3.036V15h-1.881V7.212h1.881v2.948h3.036V7.212h1.881V15h-1.881zm8.977 0l-.605-1.529h-3.014L13.4645 15h-2.046l3.267-7.788h1.826L19.7455 15h-2.09zm-2.09-5.709l-.99 2.673h1.958l-.968-2.673zm10.946.319c0 .4547-.0843.8378-.253 1.1495-.1687.3117-.396.5628-.682.7535-.286.1907-.616.33-.99.418-.374.088-.7627.132-1.166.132h-.935V15h-1.881V7.212h2.86c.4253 0 .8232.0422 1.1935.1265.3703.0843.693.22.968.407.275.187.4913.4327.649.737s.2365.6802.2365 1.1275zm-1.881.011c0-.1833-.0367-.3337-.11-.451a.7664.7664 0 0 0-.297-.275c-.1247-.066-.2658-.11-.4235-.132a3.5395 3.5395 0 0 0-.4895-.033h-.825v1.837h.792c.176 0 .3447-.0147.506-.044s.3062-.0807.4345-.154c.1283-.0733.2292-.1705.3025-.2915.0733-.121.11-.2732.11-.4565z"/>
</svg>
