<svg xmlns="http://www.w3.org/2000/svg" viewBox="0 0 131.667 32"><path fill="#FFF" d="M3.913 30.859c16.472-4.015 26.192-13.133 23.684-20.17-.892-2.501-3.197-4.018-5.772-4.661-1.814-.453-4.164-.257-5.941.346-1.949.659-3.841 2.195-5.25 3.677-1.146 1.207-1.9 2.727-2.523 4.253-.26.639-.49 1.289-.7 1.944-.222.694-.519 1.629-.676 2.285.867-16.666 15.477-16.94 20.841-12.021 4.089 3.749 3.832 10.2 1.127 14.064-3.663 5.232-10.664 7.95-16.839 9.256-2.676.566-5.096.99-8.013 1.168"/><path fill="#FFF" d="M22.291 6.906c5.233 1.683 6.111 6.986 3.873 10.914-1.98 3.471-4.73 5.234-4.73 5.234 5.301-4.639 5.105-8.456 4.194-11.323-.745-2.345-2.806-4.28-6.458-4.287-4.919-.011-7.436 3.157-7.436 3.157 2.08-3.522 7.216-4.77 10.557-3.695z"/><path fill="#FFF" d="M5.662 27.865C-.395 8.891 10.032 1.063 19.361 2.84 12.26-3.137-7.013 5.493 5.645 28.07c.076-.077.043-.109.017-.205M38.955 12.501v5.943h6.274v-5.943h2.708v14.838h-2.708V20.8h-6.274v6.539h-2.708V12.501h2.708M52.389 22.753c.066 1.938 1.585 2.773 3.303 2.773 1.254 0 2.156-.176 2.971-.484l.396 1.871c-.924.373-2.201.682-3.742.682-3.478 0-5.525-2.156-5.525-5.436 0-2.973 1.806-5.768 5.239-5.768 3.501 0 4.623 2.861 4.623 5.217 0 .506-.044.902-.088 1.145h-7.177zM57.1 20.86c.021-.991-.418-2.62-2.223-2.62-1.674 0-2.378 1.519-2.488 2.62H57.1zM70.183 24.778c0 .969.045 1.914.154 2.576h-2.443l-.176-1.189h-.066c-.66.836-1.784 1.43-3.171 1.43-2.157 0-3.368-1.562-3.368-3.191 0-2.707 2.399-4.072 6.363-4.05v-.177c0-.703-.285-1.871-2.181-1.871-1.057 0-2.157.33-2.883.793l-.529-1.761c.792-.484 2.179-.946 3.875-.946 3.435 0 4.425 2.179 4.425 4.512v3.874zm-2.641-2.664c-1.917-.044-3.743.375-3.743 2.004 0 1.057.682 1.541 1.541 1.541 1.079 0 1.872-.705 2.114-1.477.066-.197.088-.418.088-.594v-1.474zM72.92 20.21c0-1.453-.022-2.487-.089-3.456h2.356l.089 2.047h.086c.529-1.519 1.785-2.289 2.928-2.289.266 0 .418.022.639.065v2.555a3.708 3.708 0 0 0-.793-.089c-1.297 0-2.178.837-2.42 2.048a4.546 4.546 0 0 0-.088.836v5.548H72.92V20.21M84.61 13.761v2.752h2.575v2.025H84.61v4.732c0 1.299.353 1.981 1.387 1.981.506 0 .749-.044 1.057-.133l.044 2.07c-.396.153-1.101.285-1.959.285-.991 0-1.827-.352-2.333-.902-.572-.616-.837-1.584-.837-2.993v-5.041h-1.54v-2.025h1.54v-1.981l2.641-.77M89.734 12.501h7.993v1.607H91.65v4.931h5.614v1.585H91.65v6.715h-1.916V12.501M99.655 12.497h1.938v14.846h-1.938zM114.466 21.905c0 3.939-2.729 5.656-5.305 5.656-2.883 0-5.107-2.113-5.107-5.48 0-3.566 2.334-5.657 5.283-5.657 3.06 0 5.129 2.223 5.129 5.481zm-8.453.111c0 2.333 1.344 4.095 3.236 4.095 1.85 0 3.236-1.74 3.236-4.139 0-1.806-.902-4.096-3.191-4.096s-3.281 2.114-3.281 4.14zM117.067 16.665l1.408 5.416c.309 1.188.595 2.289.793 3.391h.066c.242-1.08.595-2.225.946-3.391l1.739-5.416h1.628l1.651 5.328a43.95 43.95 0 0 1 .946 3.479h.067c.176-1.08.462-2.202.814-3.457l1.518-5.35h1.916l-3.434 10.655h-1.762l-1.629-5.085c-.375-1.189-.683-2.246-.946-3.5h-.044c-.264 1.276-.594 2.377-.969 3.521l-1.717 5.063H118.3l-3.214-10.655h1.981"/></svg>
