<svg xmlns="http://www.w3.org/2000/svg" width="30" height="22" viewBox="0 0 30 22">
  <g fill="none" fill-rule="evenodd">
    <path fill="#FFF" d="M16.0045041,-7.10542736e-15 C16.8099823,-7.10542736e-15 17.6155511,0.0497455796 18.4212106,0.149236739 C18.9693511,0.216897681 19.3588307,0.716123819 19.2911411,1.26426084 C19.2892245,1.27978108 19.2869441,1.29525422 19.2843018,1.31066751 L19.0188216,2.85929322 C18.8306002,3.9572455 18.7359794,5.06920142 18.7359794,6.18317024 L18.7356413,7.159 L18.9678873,7.16269744 C21.545198,7.21743302 23.4253068,7.67510494 24.6183045,8.57765997 C26.4155936,9.937388 27.1981713,11.437841 27.4425713,13.8477391 C27.5941926,15.3427952 27.2228639,16.9177679 26.3460032,18.5659265 L26.1638958,18.896532 L25.8174774,19.5048036 L24.6009342,18.8119668 L24.9473526,18.2036952 C25.8192739,16.6727 26.179682,15.2705229 26.0497158,13.9889956 C25.8430972,11.95164 25.247067,10.8088585 23.7736359,9.69414328 C23.2384798,9.28927424 22.4628644,8.98737967 21.4487972,8.79680455 C22.5415898,9.94079186 23.1351103,11.5664923 23.2141983,13.6374593 C23.3477576,17.1347865 19.9853027,19.7914794 13.3459586,21.7299125 L12.951631,21.8431105 L12.2779541,22.0332669 L11.8976413,20.6859131 L12.5713182,20.4957567 C18.9145604,18.7052722 21.9184374,16.3937433 21.8152181,13.6908849 C21.7336012,11.553699 21.0602357,10.0825289 19.770554,9.20732896 C19.7983999,9.3563726 19.8119054,9.51671892 19.8119054,9.68717096 C19.8119054,10.3468007 19.6607464,10.8687021 19.3584283,11.2528753 C19.1542796,11.5122853 19.0913119,11.8557324 19.1901474,12.1706955 L19.2322974,12.3050168 C19.3555396,12.697758 19.1370675,13.1160451 18.7443263,13.2392873 L18.7018102,13.2512076 L18.7018102,13.2512076 C18.0063871,13.4249415 17.2544969,13.5118084 16.4461396,13.5118084 C15.5743307,13.5118084 14.765832,13.4107691 14.0206435,13.2086905 C13.6580641,13.1104094 13.3811807,12.81719 13.3037829,12.4495862 L13.2007816,11.9603777 C13.1534941,11.7359426 13.0305183,11.5345678 12.8524378,11.3900182 C12.2599378,10.9090807 11.9636878,10.341465 11.9636878,9.68717096 C11.9636878,9.11248081 12.076625,8.6779076 12.3024995,8.38345131 C12.450231,8.19085028 12.5228731,7.95109249 12.5068715,7.70888653 L12.3883064,5.91424131 C12.3056678,4.6633943 12.3606209,3.40725498 12.5521778,2.16840336 L12.7315501,1.00835308 C12.7982949,0.576527016 13.1376946,0.238054645 13.5696977,0.172465999 C14.3270022,0.0574886662 15.1386043,-7.10542736e-15 16.0045041,-7.10542736e-15 Z"/>
    <path fill="#FFF" fill-rule="nonzero" d="M7.78445366,6.2129265 C9.2434195,6.2129265 10.7562412,6.80692717 12.3215661,7.968474 L12.8837044,8.38560777 L12.0494368,9.50988427 L11.4872986,9.09275049 C10.1459204,8.09738299 8.91208964,7.6129265 7.78445366,7.6129265 C5.83617749,7.6129265 4.42072797,8.94103881 4.42072797,11.4489796 C4.42072797,11.6326879 4.43184835,11.8210615 4.45412323,12.0140677 L5.0413208,12.7160645 C6.30402088,13.971051 7.52563203,14.727701 8.60283557,15.104245 C9.71474292,15.49292 10.9087898,15.6877551 12.1881776,15.6877551 L12.1881776,15.6877551 L12.8881776,15.6877551 L12.8881776,17.0877551 L12.1881776,17.0877551 C10.7543958,17.0877551 9.40422498,16.8674449 8.1408666,16.4258291 C7.24765502,16.1136008 6.33316168,15.5773942 5.3936239,14.8200936 C6.04075768,16.0663177 7.01221675,17.4434191 8.31336419,18.9442679 L8.77189843,19.4731784 L7.71407738,20.3902469 L7.25554313,19.8613364 C4.44643973,16.6210891 3.02072797,13.8305812 3.02072797,11.4489796 C3.02072797,8.14720647 5.08220698,6.2129265 7.78445366,6.2129265 Z" opacity=".4"/>
    <rect width="30" height="22"/>
  </g>
</svg>
